<svg width="16" height="16" viewBox="0 0 16 16" fill="none" xmlns="http://www.w3.org/2000/svg">
<path d="M9.82843 3H13.8099C14.986 3 15.9082 4.00984 15.8017 5.18107L15.1654 12.1811C15.0717 13.2112 14.208 14 13.1736 14H2.82643C1.79202 14 0.928294 13.2112 0.834643 12.1811L0.19828 5.18107C0.154224 4.69646 0.286278 4.23948 0.539556 3.87023L0.5 3C0.5 1.89543 1.39543 1 2.5 1H6.17157C6.70201 1 7.21071 1.21071 7.58579 1.58579L8.41421 2.41421C8.78929 2.78929 9.29799 3 9.82843 3ZM1.50647 3.11964C1.71927 3.04231 1.94935 3 2.19007 3H7.58579L6.87868 2.29289C6.69114 2.10536 6.43679 2 6.17157 2H2.5C1.95402 2 1.51024 2.43755 1.50017 2.98112L1.50647 3.11964Z" fill="white"/>
</svg>
