<svg width="13" height="14" viewBox="0 0 13 14" fill="none" xmlns="http://www.w3.org/2000/svg">
<path d="M5 13.5V9.99466C5 9.75 5.25 9.5 5.5 9.5H7.5C7.75 9.5 8 9.75 8 10V13.5C8 13.7761 8.22386 14 8.5 14H12.5C12.7761 14 13 13.7761 13 13.5V6.5C13 6.36739 12.9473 6.24021 12.8536 6.14645L11.5 4.79289L10.5 4.5C10.5 4.5 8.77614 3 8.5 3C8.22386 3 8 2.22386 8 2.5L8.5 3L6.85355 0.146447C6.65829 -0.0488155 6.34171 -0.0488155 6.14645 0.146447L0.146447 6.14645C0.0526784 6.24021 0 6.36739 0 6.5V13.5C0 13.7761 0.223858 14 0.5 14H4.5C4.77614 14 5 13.7761 5 13.5Z" fill="black"/>
<rect x="5.27662" y="1.69083" width="2.20705" height="8.43723" transform="rotate(-45 5.27662 1.69083)" fill="black"/>
</svg>
